<svg width="135" height="42" viewBox="0 0 135 42" fill="none" xmlns="http://www.w3.org/2000/svg">
<path d="M55.7345 18.0818L57.1814 12.5997C57.5733 11.1051 58.8485 10.356 61.0068 10.3524H64.1128C64.1802 10.3514 64.2471 10.3654 64.3084 10.3935C64.3697 10.4216 64.4239 10.463 64.4672 10.5148C64.5569 10.6185 64.6048 10.752 64.6014 10.8891V18.0818C64.6029 18.1525 64.5893 18.2227 64.5615 18.2877C64.5337 18.3527 64.4924 18.411 64.4403 18.4589C64.3893 18.5088 64.3288 18.548 64.2625 18.5742C64.1961 18.6005 64.1251 18.6133 64.0538 18.6118H62.9706C62.8995 18.6138 62.8288 18.6014 62.7627 18.5751C62.6966 18.5489 62.6366 18.5094 62.5864 18.4592C62.5361 18.4089 62.4966 18.3489 62.4704 18.2829C62.4441 18.2169 62.4316 18.1462 62.4336 18.0751V16.6194H58.3398L57.9532 18.0725C57.9156 18.2287 57.8238 18.3666 57.6941 18.4615C57.573 18.5589 57.4227 18.6127 57.2673 18.6145H56.1331C56.0822 18.6189 56.0309 18.6131 55.9822 18.5975C55.9335 18.5819 55.8884 18.5567 55.8496 18.5235C55.8107 18.4903 55.7789 18.4496 55.7559 18.404C55.7329 18.3584 55.7192 18.3086 55.7157 18.2576C55.7162 18.1985 55.7225 18.1397 55.7345 18.0818ZM58.7653 14.996H62.4363V11.9826H60.7948C60.4475 11.9746 60.1078 12.0848 59.8314 12.2952C59.5551 12.5056 59.3585 12.8036 59.274 13.1404L58.7653 14.996Z" fill="white"/>
<path d="M66.141 15.3462V10.8998C66.1409 10.8269 66.1555 10.7547 66.1838 10.6875C66.212 10.6203 66.2535 10.5594 66.3056 10.5084C66.3577 10.4574 66.4195 10.4174 66.4874 10.3906C66.5552 10.3638 66.6277 10.3508 66.7007 10.3524H67.7745C67.9174 10.3566 68.0532 10.4159 68.1533 10.518C68.2534 10.62 68.3101 10.7569 68.3114 10.8998V15.3582C68.3114 15.9217 68.4353 16.3421 68.6832 16.6194C68.9302 16.8958 69.314 17.034 69.8322 17.034H70.7543C71.2724 17.034 71.6563 16.8998 71.9033 16.6194C72.1502 16.339 72.2751 15.9217 72.2751 15.3582V10.8998C72.2745 10.8283 72.2882 10.7574 72.3154 10.6913C72.3426 10.6252 72.3827 10.5652 72.4334 10.5148C72.4828 10.4627 72.5424 10.4215 72.6084 10.3935C72.6745 10.3656 72.7456 10.3516 72.8173 10.3524H73.8911C73.9659 10.35 74.0403 10.3631 74.1096 10.3911C74.179 10.419 74.2417 10.4612 74.2938 10.5148C74.3457 10.5645 74.3869 10.6243 74.4148 10.6905C74.4427 10.7567 74.4568 10.828 74.4562 10.8998V15.3462C74.4562 16.398 74.1466 17.2129 73.5274 17.7907C72.9081 18.3685 72.0057 18.6574 70.8201 18.6574H69.7825C68.5924 18.6574 67.689 18.3685 67.0725 17.7907C66.4559 17.2129 66.1454 16.398 66.141 15.3462Z" fill="white"/>
<path d="M75.2723 11.4419V10.9052C75.2709 10.8329 75.284 10.7611 75.311 10.694C75.338 10.6269 75.3783 10.566 75.4295 10.5149C75.4806 10.4637 75.5416 10.4235 75.6087 10.3965C75.6758 10.3695 75.7476 10.3563 75.82 10.3578H83.1312C83.2035 10.3563 83.2754 10.3695 83.3425 10.3965C83.4096 10.4235 83.4706 10.4637 83.5217 10.5149C83.5729 10.566 83.6131 10.6269 83.6402 10.694C83.6672 10.7611 83.6803 10.8329 83.6789 10.9052V11.4419C83.681 11.5139 83.6684 11.5857 83.6416 11.6526C83.6148 11.7196 83.5745 11.7803 83.5232 11.8309C83.4714 11.8813 83.41 11.9206 83.3426 11.9467C83.2753 11.9727 83.2034 11.9849 83.1312 11.9826H80.5621V18.0818C80.5638 18.1523 80.5505 18.2223 80.5232 18.2873C80.4959 18.3522 80.4552 18.4107 80.4038 18.4589C80.3531 18.5084 80.293 18.5475 80.2271 18.5737C80.1612 18.6 80.0908 18.6129 80.0199 18.6118H78.9313C78.8605 18.6133 78.7902 18.6005 78.7245 18.5742C78.6588 18.5479 78.599 18.5087 78.5488 18.4589C78.4973 18.4107 78.4566 18.3522 78.4293 18.2873C78.402 18.2223 78.3887 18.1523 78.3904 18.0818V11.9826H75.82C75.7478 11.9849 75.6759 11.9727 75.6085 11.9467C75.5412 11.9206 75.4798 11.8813 75.428 11.8309C75.3767 11.7803 75.3364 11.7196 75.3096 11.6526C75.2828 11.5857 75.2701 11.5139 75.2723 11.4419Z" fill="white"/>
<path d="M92.0693 17.7572C91.2836 18.445 90.1315 18.7894 88.613 18.7903C87.0945 18.7911 85.941 18.4468 85.1526 17.7572C84.3643 17.0675 83.9706 15.9758 83.9715 14.4821C83.9724 12.9884 84.3661 11.898 85.1526 11.2111C85.941 10.5242 87.0945 10.1807 88.613 10.1807C90.1315 10.1807 91.2836 10.5242 92.0693 11.2111C92.855 11.898 93.2478 12.9884 93.2478 14.4821C93.2478 15.9758 92.855 17.0675 92.0693 17.7572ZM90.4935 12.4267C90.1051 11.9651 89.4787 11.7348 88.6143 11.7357C87.7499 11.7366 87.1235 11.9669 86.7352 12.4267C86.3459 12.8864 86.1509 13.5725 86.15 14.4848C86.1491 15.3971 86.3441 16.0827 86.7352 16.5416C87.1244 17.0004 87.7508 17.2299 88.6143 17.2299C89.4779 17.2299 90.1042 17.0004 90.4935 16.5416C90.8818 16.0827 91.076 15.3971 91.076 14.4848C91.076 13.5725 90.8823 12.8864 90.4948 12.4267H90.4935Z" fill="white"/>
<path d="M93.9578 16.4987C93.949 16.4072 93.9628 16.315 93.9979 16.2301C94.033 16.1452 94.0884 16.0702 94.1592 16.0116C94.2707 15.9219 94.4081 15.8702 94.5511 15.864H95.237C95.582 15.864 95.8451 16.0532 96.0263 16.4289C96.2075 16.8046 96.6115 16.9937 97.2423 16.9937L99.2557 17.034C99.9322 17.034 100.27 16.8131 100.269 16.3712C100.269 16.0376 99.8566 15.7746 99.0316 15.5823C98.6625 15.4937 98.2544 15.4065 97.8101 15.314C97.3658 15.2214 96.9215 15.1194 96.4813 14.9879C96.0669 14.8671 95.6629 14.7132 95.2733 14.5277C94.9187 14.3627 94.6106 14.1124 94.3766 13.7992C94.1459 13.4825 94.0257 13.0988 94.0344 12.7071C94.0344 11.936 94.3091 11.3421 94.8585 10.9253C95.4079 10.5085 96.3524 10.3001 97.692 10.3001L99.1564 10.335C99.9101 10.3255 100.65 10.5368 101.285 10.9428C101.918 11.3479 102.234 11.8538 102.233 12.4602C102.241 12.552 102.227 12.6445 102.192 12.7298C102.157 12.815 102.102 12.8906 102.032 12.9499C101.922 13.04 101.787 13.0922 101.645 13.0988H100.959C100.614 13.0988 100.351 12.9097 100.17 12.5313C99.989 12.1529 99.5837 11.9642 98.9537 11.9651L97.2195 11.9302C96.5448 11.9302 96.207 12.1512 96.2061 12.593C96.2061 12.8345 96.4195 13.0318 96.8491 13.186C97.3567 13.3593 97.8768 13.4939 98.4047 13.5885C99.0123 13.7066 99.624 13.8479 100.24 14.0125C100.817 14.1581 101.353 14.437 101.803 14.8269C102.009 15.0002 102.173 15.2169 102.284 15.4615C102.395 15.7061 102.451 15.9724 102.446 16.2411C102.446 17.013 102.171 17.6073 101.619 18.0241C101.068 18.441 100.122 18.6521 98.7806 18.6574L97.0356 18.6225C96.2812 18.6323 95.5404 18.4215 94.9041 18.0161C94.2733 17.6109 93.9578 17.1051 93.9578 16.4987Z" fill="white"/>
<path d="M107.751 18.0818V10.9119C107.748 10.8373 107.761 10.763 107.789 10.6937C107.817 10.6244 107.859 10.5616 107.912 10.5094C107.962 10.4574 108.022 10.4162 108.088 10.3883C108.155 10.3604 108.226 10.3463 108.299 10.347H111.52C113.187 10.347 114.4 10.6802 115.159 11.3466C115.918 12.013 116.297 13.0572 116.297 14.4794C116.297 15.9034 115.918 16.9468 115.159 17.6096C114.4 18.2724 113.187 18.6055 111.519 18.6091H108.297C108.226 18.6106 108.155 18.5978 108.088 18.5716C108.022 18.5453 107.962 18.5061 107.911 18.4562C107.859 18.4085 107.818 18.3506 107.791 18.2861C107.763 18.2216 107.75 18.152 107.751 18.0818ZM109.923 16.9817H111.455C112.489 16.9817 113.192 16.7934 113.564 16.4168C113.936 16.0402 114.123 15.3962 114.124 14.4848C114.124 13.5733 113.937 12.9284 113.564 12.5501C113.191 12.1717 112.488 11.9826 111.455 11.9826H109.921L109.923 16.9817Z" fill="white"/>
<path d="M117.477 10.8891C117.476 10.8179 117.489 10.7472 117.517 10.6816C117.545 10.6159 117.586 10.5568 117.638 10.508C117.689 10.4577 117.749 10.4179 117.815 10.3912C117.882 10.3645 117.953 10.3513 118.024 10.3524H124.667C124.739 10.3516 124.81 10.3656 124.876 10.3936C124.941 10.4215 125.001 10.4628 125.05 10.5148C125.101 10.5649 125.141 10.6249 125.169 10.691C125.196 10.7572 125.209 10.8283 125.208 10.8998V11.4365C125.208 11.5788 125.152 11.7153 125.051 11.816C124.95 11.9166 124.814 11.9732 124.671 11.9732H119.649V13.6583H123.969C124.112 13.6583 124.248 13.7149 124.349 13.8155C124.45 13.9162 124.506 14.0527 124.506 14.195V14.7317C124.506 14.874 124.45 15.0105 124.349 15.1111C124.248 15.2118 124.112 15.2683 123.969 15.2683H119.649V16.9669H124.655C124.798 16.9669 124.934 17.0234 125.035 17.1241C125.136 17.2247 125.192 17.3612 125.192 17.5036V18.0724C125.193 18.1441 125.179 18.2151 125.152 18.2811C125.124 18.3472 125.083 18.4068 125.031 18.4562C124.98 18.507 124.92 18.5473 124.854 18.5745C124.787 18.6016 124.716 18.6153 124.644 18.6145H118.024C117.952 18.6149 117.88 18.6008 117.813 18.573C117.746 18.5453 117.686 18.5045 117.635 18.4531C117.584 18.4016 117.543 18.3405 117.516 18.2733C117.489 18.2061 117.476 18.1342 117.477 18.0617V10.8891Z" fill="white"/>
<path d="M126.269 18.0818V10.9119C126.266 10.8373 126.279 10.763 126.307 10.6937C126.334 10.6244 126.376 10.5616 126.43 10.5094C126.48 10.4574 126.54 10.4162 126.606 10.3883C126.673 10.3604 126.744 10.3463 126.816 10.347H127.899C127.971 10.3461 128.042 10.36 128.108 10.388C128.174 10.4159 128.233 10.4573 128.282 10.5094C128.335 10.5618 128.376 10.6247 128.404 10.694C128.431 10.7633 128.443 10.8375 128.44 10.9119V16.9817H133.459C133.531 16.9806 133.602 16.9943 133.668 17.022C133.734 17.0497 133.794 17.0908 133.843 17.1427C133.894 17.1932 133.934 17.2535 133.961 17.3198C133.988 17.3862 134.002 17.4573 134.001 17.5291V18.0657C134.001 18.2081 133.945 18.3446 133.844 18.4452C133.743 18.5459 133.607 18.6024 133.464 18.6024H126.816C126.745 18.6039 126.674 18.5911 126.608 18.5649C126.541 18.5386 126.481 18.4994 126.43 18.4495C126.379 18.4027 126.338 18.3459 126.31 18.2826C126.283 18.2193 126.268 18.1509 126.269 18.0818Z" fill="white"/>
<path d="M57.2351 32.038C56.2212 31.072 55.7143 29.5765 55.7143 27.5514C55.7143 25.5264 56.2212 24.0295 57.2351 23.0608C58.2498 22.0903 59.7711 21.6055 61.7988 21.6064H63.6269C64.797 21.5855 65.9456 21.9231 66.9181 22.5738C67.8711 23.2178 68.3481 24.1002 68.349 25.2209C68.349 25.5429 68.2523 25.7737 68.0617 25.9132C67.9036 26.0405 67.7089 26.1139 67.506 26.1225H66.5302C66.0273 26.1225 65.6363 25.8224 65.3571 25.2223C64.9535 24.3582 64.2824 23.9267 63.3437 23.9275H61.8806C60.6833 23.9275 59.8713 24.1843 59.4444 24.6977C59.0176 25.2111 58.8046 26.1614 58.8055 27.5487C58.8055 28.9369 59.0185 29.8891 59.4444 30.4052C59.8704 30.9213 60.6825 31.1793 61.8806 31.1793H63.5115C64.4511 31.1793 65.1222 30.7478 65.5249 29.8846C65.804 29.2782 66.1978 28.975 66.706 28.975H67.6819C67.7992 28.9705 67.9159 28.9943 68.0222 29.0442C68.1285 29.0942 68.2212 29.1689 68.2926 29.2621C68.4343 29.4367 68.512 29.6544 68.5127 29.8792C68.5127 31 68.0371 31.881 67.0859 32.5224C66.1137 33.1701 64.9669 33.5058 63.7987 33.4843H61.7974C59.7706 33.487 58.2498 33.0049 57.2351 32.038Z" fill="white"/>
<path d="M69.1355 32.6699L71.1932 24.8681C71.7498 22.7428 73.5645 21.6775 76.6374 21.6722H81.0628C81.1587 21.6704 81.2538 21.69 81.3412 21.7297C81.4285 21.7694 81.5058 21.8282 81.5675 21.9016C81.6992 22.0491 81.7706 22.2406 81.7675 22.4383V32.6699C81.7694 32.7705 81.7499 32.8704 81.7103 32.9629C81.6708 33.0554 81.612 33.1385 81.538 33.2066C81.4653 33.2772 81.3794 33.3328 81.2852 33.3701C81.191 33.4074 81.0903 33.4257 80.989 33.424H79.4414C79.339 33.4279 79.2369 33.4107 79.1416 33.3733C79.0462 33.3359 78.9596 33.2792 78.8872 33.2068C78.8149 33.1343 78.7583 33.0476 78.7211 32.9523C78.6838 32.8569 78.6667 32.7548 78.6709 32.6525V30.5877H72.8415L72.2925 32.6525C72.2385 32.8749 72.1078 33.0711 71.9234 33.2066C71.7511 33.3447 71.5375 33.4212 71.3167 33.424H69.706C69.6336 33.4298 69.5607 33.4213 69.4916 33.3989C69.4225 33.3764 69.3585 33.3405 69.3034 33.2933C69.2482 33.246 69.203 33.1883 69.1702 33.1234C69.1375 33.0586 69.118 32.9879 69.1127 32.9155C69.1124 32.8331 69.1201 32.7509 69.1355 32.6699ZM73.4482 28.2692H78.6709V23.9906H76.334C75.8398 23.9796 75.3565 24.1365 74.9632 24.4358C74.5699 24.7352 74.2899 25.1591 74.169 25.6382L73.4482 28.2692Z" fill="white"/>
<path d="M84.1057 32.6364V22.4665C84.103 22.3623 84.1213 22.2587 84.1593 22.1617C84.1973 22.0646 84.2544 21.9762 84.3272 21.9016C84.3958 21.8281 84.4789 21.7697 84.5714 21.7302C84.6638 21.6907 84.7635 21.671 84.8641 21.6722H88.2009C88.4237 21.6757 88.6383 21.7569 88.8076 21.9016C88.9895 22.0405 89.124 22.2322 89.1928 22.4504L91.6089 29.4486L94.025 22.4504C94.0938 22.2322 94.2283 22.0405 94.4102 21.9016C94.5794 21.7567 94.7941 21.6755 95.0169 21.6722H98.3537C98.4544 21.6702 98.5543 21.6896 98.6469 21.7292C98.7394 21.7687 98.8225 21.8275 98.8906 21.9016C98.9623 21.9768 99.0184 22.0654 99.0557 22.1624C99.093 22.2593 99.1108 22.3626 99.1081 22.4665V32.6364C99.1108 32.7405 99.0923 32.8441 99.0535 32.9408C99.0147 33.0375 98.9565 33.1252 98.8826 33.1986C98.8117 33.2714 98.7267 33.329 98.6328 33.3677C98.5388 33.4065 98.4379 33.4256 98.3363 33.424H96.8598C96.7584 33.4256 96.6577 33.4065 96.564 33.3677C96.4702 33.3289 96.3855 33.2714 96.3148 33.1986C96.2409 33.1252 96.1827 33.0375 96.1439 32.9408C96.1052 32.8441 96.0866 32.7405 96.0893 32.6364V24.6306L93.1954 32.6807C93.1138 32.8891 92.9741 33.0698 92.7928 33.2012C92.6204 33.3392 92.4069 33.4157 92.1861 33.4186H91.0129C90.7933 33.4162 90.5809 33.3396 90.4103 33.2012C90.2316 33.0672 90.0925 32.8873 90.0076 32.6807L87.1217 24.6306V32.6364C87.1245 32.7405 87.1059 32.8441 87.0671 32.9408C87.0284 33.0375 86.9702 33.1252 86.8962 33.1986C86.8256 33.2714 86.7409 33.3289 86.6471 33.3677C86.5534 33.4065 86.4527 33.4256 86.3513 33.424H84.8748C84.7717 33.4242 84.6696 33.4038 84.5745 33.3642C84.4793 33.3246 84.393 33.2664 84.3206 33.1931C84.2481 33.1198 84.191 33.0329 84.1525 32.9373C84.114 32.8417 84.0949 32.7394 84.0963 32.6364H84.1057Z" fill="white"/>
<path d="M101.465 32.6699V22.4504C101.466 22.2444 101.549 22.0473 101.695 21.9017C101.84 21.756 102.038 21.6736 102.244 21.6722H103.774C103.877 21.6709 103.979 21.6902 104.074 21.7287C104.17 21.7673 104.257 21.8244 104.33 21.8968C104.403 21.9692 104.461 22.0555 104.501 22.1505C104.54 22.2455 104.561 22.3474 104.56 22.4504V32.6471C104.562 32.7494 104.542 32.8509 104.502 32.9449C104.461 33.039 104.402 33.1236 104.327 33.1932C104.254 33.2657 104.168 33.323 104.073 33.3617C103.978 33.4005 103.876 33.4198 103.774 33.4186H102.249C102.148 33.4203 102.047 33.402 101.953 33.3647C101.859 33.3274 101.773 33.2718 101.7 33.2013C101.626 33.1342 101.566 33.0522 101.526 32.9607C101.485 32.8691 101.465 32.77 101.465 32.6699Z" fill="white"/>
<path d="M106.913 32.6525V22.4557C106.912 22.3541 106.931 22.2532 106.969 22.159C107.007 22.0647 107.063 21.9791 107.135 21.907C107.203 21.8335 107.287 21.7751 107.379 21.7356C107.471 21.6961 107.571 21.6763 107.672 21.6775H110.088C110.309 21.6883 110.521 21.7686 110.694 21.907C110.903 22.0547 111.081 22.241 111.219 22.4557L116.171 30.0684V22.4343C116.169 22.3341 116.189 22.2348 116.228 22.1424C116.266 22.0501 116.324 21.9667 116.396 21.8976C116.468 21.8258 116.552 21.7692 116.646 21.7312C116.74 21.6931 116.84 21.6744 116.941 21.6762H118.351C118.453 21.6753 118.554 21.6949 118.648 21.7337C118.743 21.7726 118.829 21.83 118.9 21.9026C118.972 21.9751 119.029 22.0614 119.067 22.1561C119.105 22.2509 119.123 22.3523 119.121 22.4544V32.6512C119.121 32.7524 119.101 32.8527 119.063 32.9463C119.024 33.0399 118.967 33.1249 118.896 33.1966C118.824 33.2682 118.739 33.3251 118.646 33.3639C118.552 33.4027 118.452 33.4226 118.351 33.4226H115.629C115.392 33.415 115.163 33.3364 114.972 33.1972C114.756 33.0563 114.572 32.87 114.435 32.6512L109.902 25.6208V32.6512C109.903 32.7525 109.883 32.8529 109.844 32.9466C109.805 33.0403 109.749 33.1254 109.677 33.1971C109.605 33.2687 109.52 33.3256 109.426 33.3643C109.333 33.403 109.232 33.4228 109.131 33.4226H107.693C107.591 33.4241 107.49 33.4048 107.395 33.3661C107.3 33.3274 107.215 33.2699 107.143 33.1972C107.069 33.1271 107.011 33.0426 106.971 32.9488C106.932 32.8551 106.912 32.7542 106.913 32.6525Z" fill="white"/>
<path d="M132.325 32.2071C131.206 33.1865 129.567 33.6784 127.406 33.6829C125.244 33.6874 123.603 33.1954 122.482 32.2071C121.362 31.2232 120.802 29.6699 120.802 27.5474C120.802 25.4249 121.362 23.8734 122.482 22.8931C123.602 21.9155 125.244 21.4267 127.406 21.4267C129.567 21.4267 131.207 21.9155 132.325 22.8931C133.442 23.8716 134 25.4231 134.001 27.5474C134.002 29.6717 133.443 31.225 132.325 32.2071ZM130.082 24.6225C129.531 23.9669 128.639 23.6391 127.406 23.6391C126.172 23.6391 125.278 23.9669 124.721 24.6225C124.165 25.2773 123.888 26.2536 123.889 27.5514C123.89 28.8493 124.167 29.8247 124.721 30.4776C125.275 31.1297 126.17 31.4562 127.406 31.4571C128.641 31.458 129.533 31.1315 130.082 30.4776C130.633 29.8238 130.909 28.8484 130.91 27.5514C130.911 26.2545 130.635 25.2782 130.082 24.6225Z" fill="white"/>
<path d="M25.8693 1.85689C21.8978 1.85689 18.0155 3.03406 14.7134 5.23955C11.4112 7.44505 8.83747 10.5798 7.31766 14.2474C5.79784 17.915 5.40018 21.9507 6.17498 25.8442C6.94978 29.7377 8.86223 33.3141 11.6705 36.1212C14.4787 38.9282 18.0567 40.8399 21.9518 41.6143C25.847 42.3888 29.8845 41.9913 33.5536 40.4721C37.2228 38.953 40.3589 36.3804 42.5653 33.0796C44.7717 29.7789 45.9494 25.8982 45.9494 21.9284C45.9494 16.6051 43.8338 11.4999 40.0681 7.73571C36.3023 3.97156 31.1949 1.85689 25.8693 1.85689ZM25.8693 39.6923C22.3538 39.6923 18.9172 38.6503 15.9942 36.6979C13.0712 34.7456 10.7931 31.9707 9.44786 28.7241C8.10266 25.4775 7.75083 21.9051 8.43686 18.4587C9.1229 15.0122 10.816 11.8466 13.302 9.36197C15.788 6.87738 18.9553 5.18549 22.4034 4.50027C25.8514 3.81504 29.4253 4.16726 32.673 5.51238C35.9208 6.8575 38.6965 9.1351 40.6493 12.0571C42.602 14.9792 43.644 18.4144 43.6434 21.9284C43.6434 24.2616 43.1837 26.5719 42.2905 28.7274C41.3972 30.8829 40.088 32.8415 38.4375 34.4913C36.787 36.1411 34.8276 37.4497 32.6712 38.3426C30.5147 39.2354 28.2034 39.695 25.8693 39.695V39.6923Z" fill="white"/>
<path d="M25.8693 0L42.6944 40.0331L26.9095 17.0233L25.8693 0Z" fill="#911922"/>
<path d="M25.8693 0L9.0817 40.0479L24.8451 17.0246L25.8693 0Z" fill="#911922"/>
<path d="M0 9.3314L19.06 13.7335L8.52063 40.0599L13.6199 16.5738L0 9.3314Z" fill="#911922"/>
<path d="M51.6808 9.3314L32.6222 13.7335L43.1616 40.0599L38.061 16.5738L51.6808 9.3314Z" fill="#911922"/>
</svg>
