<svg width="20" height="20" viewBox="0 0 20 20" fill="none" xmlns="http://www.w3.org/2000/svg">
<path d="M19.1858 17.3448L15.5025 13.9323C16.6909 12.5255 17.3357 10.7883 17.3333 8.99984C17.3333 7.4071 16.825 5.85012 15.8727 4.5258C14.9204 3.20148 13.5669 2.1693 11.9833 1.55978C10.3996 0.950267 8.65706 0.790789 6.97589 1.10152C5.29472 1.41225 3.75047 2.17923 2.53841 3.30547C1.32636 4.43171 0.500937 5.86663 0.166531 7.42877C-0.167874 8.99091 0.00375509 10.6101 0.659715 12.0816C1.31567 13.5531 2.4265 14.8108 3.85173 15.6957C5.27695 16.5806 6.95257 17.0529 8.66667 17.0529C10.5914 17.0551 12.461 16.456 13.975 15.3517L17.6475 18.7742C17.7482 18.8686 17.868 18.9435 18 18.9946C18.1321 19.0457 18.2737 19.072 18.4167 19.072C18.5597 19.072 18.7013 19.0457 18.8333 18.9946C18.9653 18.9435 19.0851 18.8686 19.1858 18.7742C19.2874 18.6807 19.368 18.5693 19.423 18.4467C19.478 18.324 19.5063 18.1924 19.5063 18.0595C19.5063 17.9266 19.478 17.7951 19.423 17.6724C19.368 17.5497 19.2874 17.4384 19.1858 17.3448ZM2.16667 8.99984C2.16667 7.80528 2.54789 6.63755 3.26212 5.64431C3.97635 4.65107 4.99151 3.87694 6.17923 3.4198C7.36695 2.96266 8.67388 2.84305 9.93476 3.0761C11.1956 3.30915 12.3538 3.88438 13.2629 4.72906C14.1719 5.57374 14.791 6.64993 15.0418 7.82154C15.2926 8.99314 15.1639 10.2075 14.6719 11.3112C14.1799 12.4148 13.3468 13.3581 12.2779 14.0217C11.209 14.6854 9.95225 15.0396 8.66667 15.0396C6.94276 15.0396 5.28946 14.4033 4.07048 13.2706C2.85149 12.1379 2.16667 10.6017 2.16667 8.99984Z" fill="#76787B"/>
</svg>
