<svg width="21" height="20" viewBox="0 0 21 20" fill="none" xmlns="http://www.w3.org/2000/svg">
<path fill-rule="evenodd" clip-rule="evenodd" d="M10.6666 0.916687C11.2649 0.916687 11.75 1.40171 11.75 2.00002V8.96975H19.3333C19.9316 8.96975 20.4166 9.45477 20.4166 10.0531C20.4166 10.6514 19.9316 11.1364 19.3333 11.1364H11.75V18.1061C11.75 18.7045 11.2649 19.1895 10.6666 19.1895C10.0683 19.1895 9.58329 18.7045 9.58329 18.1061V11.1364H1.99996C1.40165 11.1364 0.916626 10.6514 0.916626 10.0531C0.916626 9.45477 1.40165 8.96975 1.99996 8.96975H9.58329V2.00002C9.58329 1.40171 10.0683 0.916687 10.6666 0.916687Z" fill="white"/>
</svg>
